# xmcd
#
# Track frame offsets:
#	150
#	18101
#	37118
#	50087
#	64315
#	79913
#	94571
#	106866
#	119504
#	134104
#	145371
#	159743
#	169224
#	182310
#
# Disc length: 2562 seconds
#
# Revision: 2
# Processed by: cddbd v1.5.2PL0 Copyright (c) Steve Scherf et al.
# Submitted via: audiograbber 1.83.01
#
DISCID=c60a000e
DTITLE=Various Artist - Hillcrest #40
DYEAR=2008
DGENRE=Country
TTITLE0=Dave Sheriff - Heart Made of Stone
TTITLE1=James Kilbane - Ticket Home
TTITLE2=Robin Scott - Tear It Up
TTITLE3=Cliff Short - Lately
TTITLE4=Marty Rivers - Made In Mexico
TTITLE5=Clelia Adams - Wildflowers
TTITLE6=Jason Whited - Love Makes A Fool Of Us All
TTITLE7=Redman Live - Here In The Country
TTITLE8=Melissa Bajric - Blue Mountain Melody
TTITLE9=Jeff Chance - Lonesome's My Friend
TTITLE10=Mel Sommers - Roll With The Punches
TTITLE11=Miss Jeanie - Heartaches
TTITLE12=Hermann Lammers Meyer - What Goes On
TTITLE13=Vannatta - Alberta Rocky Mountain Spring
EXTD=
EXTT0=
EXTT1=
EXTT2=
EXTT3=
EXTT4=
EXTT5=
EXTT6=
EXTT7=
EXTT8=
EXTT9=
EXTT10=
EXTT11=
EXTT12=
EXTT13=
PLAYORDER=
